<?xml version="1.0" encoding="utf-8"?>
<!-- Generator: Adobe Illustrator 28.1.0, SVG Export Plug-In . SVG Version: 6.00 Build 0)  -->
<svg version="1.1" id="Layer_1" xmlns="http://www.w3.org/2000/svg" xmlns:xlink="http://www.w3.org/1999/xlink" x="0px" y="0px"
	 viewBox="0 0 240 288" style="enable-background:new 0 0 240 288;" xml:space="preserve">
<style type="text/css">
	.st0{fill:#D3D3D4;}
	.st1{fill:#FFFFFF;stroke:#000000;stroke-miterlimit:10;}
	.st2{fill:#FFFFFF;}
</style>
<g>
	<path d="M170.8,105c25.3-8.1,51.5,0.7,58.7,4.3c9.5,4.7,12.4,10.3,5.4,12.4c-7,2.1-42.1,0.3-63.8,6.8
		C149.4,135,170.8,105,170.8,105z"/>
	<path class="st0" d="M174.6,106.9c22.6-6.5,47.6,1.7,57.3,8.2c3.4,2.3,5,4,5,5.3c0,0.7-1.4,1.5-3.8,2.2c-7.1,1.9-41.4,0.8-63.1,7.3
		C148.2,136.4,174.6,106.9,174.6,106.9z"/>
	<path d="M113.8,259.8c1,4,8.1,19.8,10.2,23.6c0.9,1.6,3.4,3.2,7.9,3.4c7.1,0.3,31-0.2,40,0c4,0.1,3.8-3-0.5-5.2
		c-9.4-4.7-27.3-4.8-29.7-6.9c-1.7-1.4-5.6-20.2-7.5-24.1C132.2,246.3,111.8,252.1,113.8,259.8z"/>
	<g>
		<g>
			<path d="M56.4,220.4C77.8,95.6,124.2,74.2,127.9,56.2c3.3-15.9,4-15.3,7.2-7.9c5.6,12.9-15.4,216.1-18.9,214.6
				c-14.9-6.6-29,0.7-54.1,2.9c-23.8,2.1-52.8,4.9-61.1-4.1C-1.6,258.8,52.8,241.3,56.4,220.4z"/>
			<path class="st1" d="M132.6,136.5c1.8-74.2-9.7-72.1,17.7-101.8c6.9-7.4,24,6.5,28.7,3.5c1-0.7,0.1,10,0.8,15
				c2.1,16.7,6.4,50.1,5,66.6c-6,70.5-33.3,88.9-41.9,120.2c-3.2,11.8-4.4,15.8-7.6,20.3c-1.3,1.9-7.3,4.3-12,4.1
				c-4.7-0.2-10.6,0.6-9.5-11.8c5.1-59.2,12.5-75,17.7-93.7C133.2,153,132.4,143.8,132.6,136.5z"/>
			<path d="M136.4,106.9c6.3,8.7,11.4,27.6,20.1,43c16.5,29,25.1,56.9,18.6,76.9c-6.4,20-10,11.5-11.4,1
				c-1.4-10.6-12.5-42-33.3-61.8C111.5,147.9,136.4,106.9,136.4,106.9z"/>
		</g>
	</g>
	<path d="M210.9,16.4c-5.4-0.6-9.9-2.1-17.4-5.3c-4.8-2-12.5-7.8-24.8-8.4c-10.2-0.5-23.1,1.9-31,12.2c-7.5,9.7-14.2,37.3-18.9,48.5
		c-9.2,21.6-16,34.5-28.6,60.3c-20.9,42.6,1.4,67.4,5.8,59.8c6.1-10.6,40.1-45.7,43.6-54.6c6.1-15.3,7-49.6,7.8-65.8
		c0.8-16.3,5.7-23.6,12.7-22.7c5.3,0.7,8.1,5,13.5,7.6c4.6,2.2,6-0.3,10.9-3.6c3.8-2.6,9.1-8,13-10.8c5.6-4,11.4-6.3,13.9-7.6
		c4.6-2.4,7.6-3.7,7.7-5C219.2,19.2,217.4,17,210.9,16.4z"/>
	<g>
		<path class="st2" d="M176.9,16.9c-3.7,0.2-5.8,3.1-5.7,5.2c0.1,2,2.6,4.3,6.3,4.1c3.9-0.2,5.8-2.8,5.6-4.9
			C182.9,19.3,180.8,16.7,176.9,16.9z"/>
		<path d="M177,18.8c-2.1,0.1-3.4,1.8-3.3,3c0.1,1.2,1.5,2.6,3.6,2.5c2.2-0.1,3.3-1.7,3.2-2.9C180.4,20.2,179.2,18.7,177,18.8z"/>
	</g>
	<path d="M88.4,250.8c0.5,4.1,2.5,25.1,5.5,28.3c1.3,1.4,3.3,1.4,7.8,1.6c7.1,0.3,31-0.2,40,0c4,0.1,3.8-3-0.5-5.2
		c-9.4-4.7-28.9-7.5-31.8-9c-1.9-1-3.3-20.3-3.4-22.1C105.5,239.7,87.4,242.9,88.4,250.8z"/>
</g>
</svg>
