<?xml version="1.0" encoding="utf-8"?>
<!-- Generator: Adobe Illustrator 28.1.0, SVG Export Plug-In . SVG Version: 6.00 Build 0)  -->
<svg version="1.1" id="Layer_1" xmlns="http://www.w3.org/2000/svg" xmlns:xlink="http://www.w3.org/1999/xlink" x="0px" y="0px"
	 viewBox="0 0 279 269" style="enable-background:new 0 0 279 269;" xml:space="preserve">
<style type="text/css">
	.st0{fill:#D3D3D4;}
	.st1{fill:#FFFFFF;stroke:#000000;stroke-miterlimit:10;}
	.st2{fill:#FFFFFF;}
</style>
<g>
	<path d="M222.9,89.5c-6.8-2-14.1-4-25.5-6.3c-7.4-1.5-9.6-4.2-12.1-7.7c-2.8-3.9-1.8,31.7,1.2,31.8c16.6,0.6,32.6-2,39.3-0.5
		c28.9,6.4,33.8,11.9,40.1,22.2c2.2,3.6,3.1,6.6,5.8,7.4c2.6,0.8,5.9-2.8,3-8.4C268.4,115.6,254.6,98.9,222.9,89.5z"/>
	<path class="st0" d="M188.4,86.5c7.1,0.1,25.2,3.5,30.7,5.4c32.2,11.2,43.1,23.8,49.8,33.8c2.9,4.3,4.7,10.5,4.2,10.7
		c-1.1,0.6-2.3,0.8-3.9,0c-2.4-1.2-13.3-11.8-32.6-16.6c-16.4-4.1-38.1-2.5-45-6.4c-2.2-1.2-3.7-5.5-4.5-13.7
		C186.9,97.6,185.9,86.5,188.4,86.5z"/>
	<path d="M56.1,89.5c6.8-2,14.1-4,25.5-6.3c7.4-1.5,9.6-4.2,12.1-7.7c2.8-3.9,1.8,31.7-1.2,31.8c-16.6,0.6-32.6-2-39.3-0.5
		c-28.9,6.4-33.8,11.9-40.1,22.2c-2.2,3.6-3.1,6.6-5.8,7.4c-2.6,0.8-5.9-2.8-3-8.4C10.7,115.6,24.5,98.9,56.1,89.5z"/>
	<path class="st0" d="M90.6,86.5c-7.1,0.1-25.2,3.5-30.7,5.4c-32.2,11.2-43.1,23.8-49.8,33.8c-2.9,4.3-4.7,10.5-4.2,10.7
		c1.1,0.6,2.3,0.8,3.9,0c2.4-1.2,13.3-11.8,32.6-16.6c16.4-4.1,38.1-2.5,45-6.4c2.2-1.2,3.7-5.5,4.5-13.7
		C92.2,97.6,93.1,86.5,90.6,86.5z"/>
	<g>
		<g>
			<path d="M106.4,238.1c-0.5,2.8-0.3,12.6-0.8,14.4c-0.5,1.8-4.7,7.3-4.5,9.3c0.3,2.7,7,4.9,11.4,5.3c4.5,0.4,17.5-2.2,19.1-4.5
				c1.6-2.3-8.2-6.7-9.3-8.9c-1.1-2.1-1.8-7.5-1.8-15.8C120.5,236,106.9,235.4,106.4,238.1z"/>
			<path d="M168.5,238.1c0.5,2.8,0.3,12.6,0.8,14.4c0.5,1.8,4.8,7.3,4.6,9.3c-0.3,2.7-7,4.9-11.4,5.3c-4.5,0.4-15.7-1.9-17.4-4.2
				c-1.6-2.3,6.5-7,7.6-9.1c1.1-2.1,1.8-7.5,1.8-15.8C154.5,236,168.1,235.4,168.5,238.1z"/>
		</g>
	</g>
	<path class="st1" d="M184.2,62.1c-0.2-4.5,1.8-19.1-1.7-24.4c-3-4.5-13.1-4.3-22.9-4.3c-9.8,0-25.9,17.1-31.3,18.1
		c-6.9,1.3-22.4,11.9-24.9,15.6c-21.6,31-19.8,79-19.3,98.1c1,34.5,6.2,53.7,19.1,77c1.4,2.6,1.7,5,7.1,5.7
		c4.5,0.6,11.8,0.6,15.3-0.6c1.8-0.6,6.1,2.7,12.9,2.7c6.8,0,11.1-3.3,12.9-2.7c3.5,1.2,10.8,1.2,15.3,0.6c5.4-0.8,6.2-1.9,7.6-4.6
		c8.5-17.3,14.8-42.5,16.1-71.3C193.7,102.3,185.9,92.1,184.2,62.1z"/>
	<path d="M217.5,14.9c-5.3-0.6-9.8-2-17.2-5.2c-4.8-2-11.8-7-23.9-7.7c-10-0.5-23.8,5.1-31.6,15.3c-7.4,9.6-22.2,23.6-40.2,38.4
		c-11.7,9.7-15,20.3-18.2,48.4c-1.7,14.8,1.7,9.5,3.2,0.2c1.4-8.1,4.4-14.1,7.9-22.9c6-15.1,24.8-20.3,37-30.5
		c14.1-11.8,20.2-13.2,28-12.4c7.1,0.8,9.4,6.8,14.7,10.5c5.1,3.6,6.5,4.3,11.2-0.4c3.2-3.2,10-11.2,13.9-14
		c5.5-4,11.8-7.6,14.2-8.9c4.5-2.4,8.8-5.2,9-6.4C225.8,17.7,224,15.6,217.5,14.9z"/>
	<g>
		<path class="st2" d="M184,15.4c-3.6,0.2-5.8,3.1-5.6,5.1c0.1,2,2.6,4.3,6.2,4c3.9-0.2,5.7-2.8,5.5-4.8
			C190,17.8,187.9,15.2,184,15.4z"/>
		<path d="M184.1,17.3c-2.1,0.1-3.3,1.8-3.2,2.9c0.1,1.2,1.5,2.6,3.6,2.4c2.2-0.1,3.2-1.7,3.1-2.9C187.5,18.7,186.3,17.2,184.1,17.3
			z"/>
	</g>
</g>
</svg>
