<?xml version="1.0" encoding="utf-8"?>
<!-- Generator: Adobe Illustrator 28.1.0, SVG Export Plug-In . SVG Version: 6.00 Build 0)  -->
<svg version="1.1" id="Layer_1" xmlns="http://www.w3.org/2000/svg" xmlns:xlink="http://www.w3.org/1999/xlink" x="0px" y="0px"
	 viewBox="0 0 393 231" style="enable-background:new 0 0 393 231;" xml:space="preserve">
<style type="text/css">
	.st0{fill:#FFFFFF;stroke:#000000;stroke-miterlimit:10;}
	.st1{opacity:0.8;fill:#D3D3D4;}
	.st2{fill:#FFFFFF;}
	.st3{fill:#D3D3D4;}
</style>
<path d="M253,157.6c8.2-3,35.9-16.6,39.6-14.6c2.9,1.5,23.6-1,26.5-1.4c3.4-0.4,5.1,5.5,3.9,7.8c-1.8,3.4-3.3,4.4-8.2,6.8
	c-3.3,1.6-27.2,5-39.5,9.1C263.2,169.5,244.8,160.6,253,157.6z"/>
<path d="M136,160.6c-7.8-17.1-8.9-24.2-13.8-32.3c-8.7-14.6-11.2-33.5-10.6-49.3c0.4-10.5-8.8-13-12.7-5.2
	C92.5,87,82.9,103,85.8,121.9c1.6,10.3,10.6,29.1,11.2,43.8c0.1,3.5,0.3,13.6-0.1,18C96.5,188.1,139.2,167.5,136,160.6z"/>
<path class="st0" d="M13.2,209.2c9.2-5.8,24.1-18.9,36.4-19c7.5-0.1,13-8.2,17.9-8.1c3.8,0.1,29.2,10.3,39.7,5.1
	c16.6-8.3,42.3,10.2,50.8,8c6.8-1.8,14.8-2.3,26.8-5.5c8.9-2.3,18.2-4.7,42.9-16c22-10,26.1-11.6,34.7-13.4c8.3-1.7,15.3,4.2,6,8.3
	c-7.9,3.5-38.6,28.3-57.9,38.7c-43.1,23.3-72.4,21.4-95.6,19.7c-25-1.8-43.5-11.1-55.5-13c-11.8-1.9-35.3-4-42.9-2.6
	C14.7,211.6,12,209.9,13.2,209.2z"/>
<g>
	<path class="st1" d="M358,49.4c-0.5-1.8-2.4-2.7-4.2-2.2c-1.8,0.5-2.7,2.4-2.2,4.2c0.5,1.8,2.4,2.7,4.2,2.2
		C357.6,53,358.5,51.1,358,49.4z"/>
	<path class="st1" d="M349.2,55.1c-0.5-1.8-2.4-2.7-4.2-2.2c-1.8,0.5-2.7,2.4-2.2,4.2c0.5,1.8,2.4,2.7,4.2,2.2
		C348.8,58.7,349.8,56.8,349.2,55.1z"/>
	<path class="st1" d="M353.8,22c-0.5-1.8-2.4-2.7-4.2-2.2c-1.8,0.5-2.7,2.4-2.2,4.2c0.5,1.8,2.4,2.7,4.2,2.2
		C353.3,25.6,354.3,23.7,353.8,22z"/>
	<path class="st1" d="M338.3,57c-0.4-1.1-1.6-1.8-2.7-1.4c-1.1,0.4-1.8,1.6-1.4,2.7c0.4,1.1,1.6,1.8,2.7,1.4
		C338,59.4,338.7,58.1,338.3,57z"/>
	<path class="st1" d="M380.2,3.8c-0.4-1.1-1.6-1.8-2.7-1.4c-1.1,0.4-1.8,1.6-1.4,2.7c0.4,1.1,1.6,1.8,2.7,1.4
		C379.9,6.1,380.5,4.9,380.2,3.8z"/>
	<path class="st1" d="M328.9,61.8c-0.5-1.8-2.4-2.7-4.2-2.2c-1.8,0.5-2.7,2.4-2.2,4.2c0.5,1.8,2.4,2.7,4.2,2.2
		C328.5,65.4,329.5,63.6,328.9,61.8z"/>
	<path class="st1" d="M310.5,71c-0.5-1.8-2.4-2.7-4.2-2.2c-1.8,0.5-2.7,2.4-2.2,4.2c0.5,1.8,2.4,2.7,4.2,2.2
		C310,74.6,311,72.7,310.5,71z"/>
	<path class="st1" d="M371.2,40.2c-0.5-1.8-2.4-2.7-4.2-2.2c-1.8,0.5-2.7,2.4-2.2,4.2c0.5,1.8,2.4,2.7,4.2,2.2
		C370.7,43.8,371.7,41.9,371.2,40.2z"/>
	<path class="st1" d="M389.2,31.3c-0.5-1.8-2.4-2.7-4.2-2.2c-1.8,0.5-2.7,2.4-2.2,4.2c0.5,1.8,2.4,2.7,4.2,2.2
		C388.8,35,389.7,33.1,389.2,31.3z"/>
	<path class="st1" d="M381.8,43.3c-0.4-1.3-1.7-2-3-1.6c-1.3,0.4-2,1.7-1.6,3c0.4,1.3,1.7,2,3,1.6C381.5,45.9,382.2,44.6,381.8,43.3
		z"/>
	<path class="st1" d="M304.1,79.6c-0.3-0.7-1.1-1.1-1.9-0.8c-0.7,0.3-1.1,1.1-0.8,1.9c0.3,0.7,1.1,1.1,1.9,0.8
		C304.1,81.2,304.4,80.3,304.1,79.6z"/>
	<path class="st1" d="M294.2,85.6c-0.7-1.7-2.6-2.5-4.3-1.8c-1.7,0.7-2.5,2.6-1.8,4.3c0.7,1.7,2.6,2.5,4.3,1.8
		C294.1,89.3,294.9,87.3,294.2,85.6z"/>
	<path class="st1" d="M277.4,91.2c-0.4-1.1-1.7-1.6-2.8-1.2c-1.1,0.4-1.6,1.7-1.2,2.8c0.4,1.1,1.7,1.6,2.8,1.2
		C277.4,93.5,277.9,92.2,277.4,91.2z"/>
	<path class="st1" d="M255.5,101.1c-0.4-1.1-1.7-1.6-2.8-1.2c-1.1,0.4-1.6,1.7-1.2,2.8c0.4,1.1,1.7,1.6,2.8,1.2
		C255.4,103.4,256,102.2,255.5,101.1z"/>
	<path class="st1" d="M241.5,109.4c-0.3-0.8-1.3-1.2-2.1-0.9c-0.8,0.3-1.2,1.3-0.9,2.1c0.3,0.8,1.3,1.2,2.1,0.9
		C241.4,111.2,241.8,110.2,241.5,109.4z"/>
	<path class="st1" d="M247.2,105.8c-0.4-1.1-1.7-1.6-2.8-1.2c-1.1,0.4-1.6,1.7-1.2,2.8c0.4,1.1,1.7,1.6,2.8,1.2
		C247.1,108.1,247.7,106.9,247.2,105.8z"/>
	<path class="st1" d="M266.5,94.6c-0.4-1.3-1.8-2-3.1-1.6c-1.3,0.4-2,1.8-1.6,3.1c0.4,1.3,1.8,2,3.1,1.6
		C266.2,97.3,266.9,95.9,266.5,94.6z"/>
</g>
<g>
	<path d="M11.8,204.5c5.2-4.8,6.9-8.1,12.1-14c3.3-3.7,6.5-6.4,7.9-7.5c10.8-9.1,26.6-9.2,44.4-17.7c22.8-10.9,35.1-23.4,62.8-31.4
		c41.9-12.2,55.3-9.9,88.2-10.6c23.2-0.5,39.3-1.3,71.9-6c10.9-1.6,20.3,10.8,24.1,16.7c4.5,7-18.4,12.8-22.6,14.7
		c-10.8,4.7-29.1,10.7-38.5,11.5c-12.9,2.3-19.4,6.4-32.3,12.4c-27,12.4-47.2,19.4-58.5,21.3c-14.1,2.4-29.2,4.3-37.4,8
		c-6.7,3-7.1,6.7-15.4,7c-9,0.4-25.3-11.4-31.4-16.3c-7.2-5.8-13.9-6.1-17.9-3.6c-5.5,3.4-6.2,14.6-11.5,21.2
		c-3,3.7-3.2,3.2-8.7,2.8c-4.3-0.3-13.1-1.5-17.6-1.5c-6.3,0-13,1-15.6,1c-4.8,0.1-7.9,0.5-8.6-0.5C6.4,210.7,7.3,208.7,11.8,204.5z
		"/>
	<g>
		<path class="st2" d="M43.9,192.1c3.2-0.8,5.8,1.1,6.2,2.8c0.4,1.8-1,4.3-4.2,5.1c-3.4,0.8-5.6-0.9-6-2.6
			C39.4,195.7,40.5,192.9,43.9,192.1z"/>
		<path d="M44.3,193.7c1.8-0.4,3.3,0.6,3.6,1.7c0.3,1-0.6,2.6-2.4,3c-1.9,0.5-3.2-0.6-3.5-1.6C41.7,195.8,42.4,194.2,44.3,193.7z"/>
	</g>
</g>
<path d="M125.9,181.8c3.8-6.7,10.3-16.6,15.6-28.7c9.5-21.7,40-56.9,88-61.2c13.4-1.2,10.8,6.2,4,9.8c-6.7,3.6-39.6,20.5-51.5,39.1
	c-6.2,9.6-15.1,29.8-24.5,39.5C145,193.2,122.1,188.7,125.9,181.8z"/>
<path class="st3" d="M139.4,167.7c8.9-21.1,29.8-42,33.3-45.8c17.5-19.3,43.4-25,54.5-25.8c4.7-0.4,11.2,1.2,11,1.8
	c-0.2,0.7-0.6,1.3-1.9,2.2c-3.5,2.7-12.2,7-24.3,15c-29.7,19.6-33.5,32.7-45.9,57.5c-2.8,5.6-10,18.7-31.3,15.9
	C129.5,187.8,131.7,185.8,139.4,167.7z"/>
</svg>
